<svg width="284" height="24" viewBox="0 0 284 24" fill="none" xmlns="http://www.w3.org/2000/svg">
<path d="M65.5082 4.56496L69.425 12.3423L61.1912 20.1233L65.5082 4.56496Z" fill="#008C44"/>
<path d="M62.7959 4.56496L66.7069 12.3423L58.4785 20.1233L62.7959 4.56496Z" fill="#F47920"/>
<path d="M0 17.2932L3.90518 3.22379H10.1486C12.0998 3.22379 13.4032 3.53268 14.0664 4.16923C14.7247 4.80066 14.8516 5.83133 14.4547 7.28001C14.2147 8.13339 13.8499 8.84972 13.3487 9.41569C12.8516 9.98268 12.1959 10.431 11.3886 10.7607C12.0735 10.9254 12.5093 11.2524 12.7046 11.7426C12.899 12.2329 12.8765 12.9479 12.6405 13.8851L12.1656 15.8503L12.1642 15.9035C12.0272 16.4538 12.0677 16.7484 12.2911 16.7722L12.1472 17.2932H7.92355C7.93787 16.9622 7.96413 16.6662 7.99208 16.4177C8.02277 16.1633 8.06062 15.9663 8.09812 15.8309L8.49191 14.4259C8.69034 13.6952 8.70261 13.1855 8.5185 12.892C8.33269 12.5906 7.91674 12.4423 7.26008 12.4423H5.48512L4.13157 17.2932H0ZM6.36339 9.27181H8.2645C8.93071 9.27181 9.42235 9.17668 9.72545 8.97996C10.0299 8.78153 10.256 8.44638 10.3886 7.96156C10.526 7.46855 10.4922 7.12488 10.2952 6.92952C10.0984 6.73109 9.6276 6.6346 8.88741 6.6346H7.0954L6.36339 9.27181Z" fill="#1B3281"/>
<path d="M26.0465 6.91127L23.1676 17.2934H19.6691L20.0991 15.7724C19.4833 16.3773 18.8533 16.8365 18.2181 17.1301C17.588 17.4287 16.9232 17.5757 16.2232 17.5757C15.6446 17.5757 15.1479 17.4707 14.7479 17.2624C14.3432 17.0547 14.0418 16.739 13.839 16.3227C13.659 15.9582 13.5805 15.5082 13.6112 14.9705C13.6436 14.4414 13.8305 13.5488 14.1769 12.2989L15.6688 6.91127H19.4956L18.0067 12.2737C17.7892 13.0585 17.7373 13.6102 17.8434 13.9105C17.9538 14.2136 18.2488 14.3701 18.7274 14.3701C19.2095 14.3701 19.6149 14.1956 19.9497 13.8393C20.2893 13.4861 20.5515 12.9593 20.7486 12.2583L22.2252 6.91127H26.0465Z" fill="#1B3281"/>
<path d="M24.6577 17.2932L28.5588 3.22379H33.9253C35.1094 3.22379 36.0258 3.29368 36.6794 3.44711C37.3317 3.59405 37.8431 3.83272 38.2232 4.16923C38.6995 4.60939 38.9914 5.15422 39.1114 5.80781C39.2242 6.4614 39.1574 7.22273 38.9102 8.11669C38.4731 9.68946 37.707 10.8947 36.6153 11.7368C35.5202 12.5681 34.1653 12.9857 32.5482 12.9857H30.0368L28.8438 17.2932H24.6577ZM30.9877 9.54968H32.3372C33.2096 9.54968 33.823 9.44194 34.1823 9.23396C34.5301 9.02326 34.7773 8.6489 34.928 8.11669C35.0787 7.57731 35.0398 7.20023 34.8121 6.98952C34.5928 6.77984 34.0327 6.67381 33.1363 6.67381H31.7896L30.9877 9.54968Z" fill="#1B3281"/>
<path d="M43.412 17.2934L43.4509 16.3074C42.8338 16.7694 42.2088 17.1185 41.5805 17.3367C40.9549 17.559 40.2886 17.6719 39.575 17.6719C38.4912 17.6719 37.7353 17.3773 37.2982 16.8072C36.8666 16.2362 36.7957 15.4162 37.0902 14.3702C37.3722 13.3378 37.8737 12.5778 38.5972 12.092C39.3166 11.6003 40.5181 11.2485 42.2037 11.0235C42.4175 10.9887 42.7039 10.9607 43.0626 10.9174C44.3087 10.7732 45.0083 10.4411 45.159 9.89936C45.2375 9.60274 45.1897 9.38385 45.0056 9.24952C44.828 9.11007 44.4959 9.04154 44.0165 9.04154C43.6187 9.04154 43.2985 9.12405 43.036 9.29555C42.7738 9.46875 42.5781 9.72173 42.4455 10.0777H38.7145C39.0514 8.90891 39.7397 8.02587 40.7731 7.43535C41.8028 6.83461 43.1604 6.54549 44.842 6.54549C45.6326 6.54549 46.3408 6.61947 46.9667 6.78006C47.5937 6.93382 48.052 7.15305 48.3493 7.4183C48.7151 7.74936 48.9316 8.12679 48.9933 8.5441C49.0646 8.9604 48.9865 9.55705 48.7683 10.3378L47.1635 16.126C47.112 16.3156 47.1021 16.4847 47.13 16.6385C47.1635 16.7851 47.2276 16.9105 47.3407 17.0002L47.2545 17.2934H43.412ZM44.3421 12.6576C43.9357 12.8209 43.4076 12.9774 42.7513 13.1492C41.7206 13.4257 41.1407 13.7947 41.0152 14.2512C40.9283 14.5447 40.9634 14.7708 41.1069 14.9426C41.2484 15.1059 41.4942 15.1884 41.8406 15.1884C42.4758 15.1884 42.9859 15.0278 43.366 14.7108C43.7472 14.3896 44.0322 13.8853 44.2317 13.1898C44.2664 13.0418 44.2971 12.9355 44.3169 12.856L44.3421 12.6576Z" fill="#1B3281"/>
<path d="M47.2837 21.3844L48.133 18.3115H49.2281C49.5939 18.3115 49.8817 18.2392 50.0856 18.1076C50.2925 17.9708 50.4333 17.7404 50.5145 17.4301C50.5551 17.2934 50.5799 17.1495 50.597 16.9862C50.6079 16.813 50.6079 16.6299 50.597 16.4178L50.0126 6.91128H53.8861L53.8261 13.2106L57.2076 6.91128H60.8096L54.8315 17.2433C54.153 18.3981 53.66 19.1914 53.3471 19.6244C53.0382 20.052 52.7449 20.3844 52.4603 20.6094C52.0914 20.9207 51.6795 21.1413 51.2349 21.2698C50.7893 21.4011 50.1108 21.4666 49.1988 21.4666C48.9363 21.4666 48.6342 21.4614 48.3075 21.4444C47.9833 21.4318 47.6373 21.4123 47.2837 21.3844Z" fill="#1B3281"/>
<g clip-path="url(#clip0_50_2285)">
<path d="M82.8437 20.0157V18.6864C82.8437 18.1779 82.5339 17.8449 82.0022 17.8449C81.7363 17.8449 81.4473 17.9327 81.2485 18.2218C81.0936 17.9792 80.8717 17.8449 80.5387 17.8449C80.3167 17.8449 80.0947 17.9121 79.9192 18.1547V17.8888H79.4546V20.0157H79.9192V18.8413C79.9192 18.4644 80.118 18.2863 80.4277 18.2863C80.7374 18.2863 80.8923 18.4851 80.8923 18.8413V20.0157H81.3569V18.8413C81.3569 18.4644 81.5789 18.2863 81.8654 18.2863C82.1751 18.2863 82.33 18.4851 82.33 18.8413V20.0157H82.8437ZM89.7354 17.8888H88.9817V17.2461H88.5171V17.8888H88.0963V18.3096H88.5171V19.2852C88.5171 19.7731 88.7158 20.0596 89.2475 20.0596C89.4463 20.0596 89.6683 19.9925 89.8231 19.9047L89.6889 19.5046C89.5547 19.5924 89.3998 19.6156 89.2888 19.6156C89.0669 19.6156 88.9791 19.4814 88.9791 19.262V18.3096H89.7328V17.8888H89.7354ZM93.6794 17.8424C93.4136 17.8424 93.2355 17.9766 93.1245 18.1521V17.8862H92.6599V20.0131H93.1245V18.8155C93.1245 18.4618 93.2793 18.2605 93.5684 18.2605C93.6562 18.2605 93.7672 18.2837 93.8575 18.3044L93.9917 17.8604C93.8988 17.8424 93.7672 17.8424 93.6794 17.8424ZM87.7195 18.0643C87.4975 17.9095 87.1878 17.8424 86.8548 17.8424C86.3231 17.8424 85.9695 18.1082 85.9695 18.529C85.9695 18.8826 86.2353 19.0839 86.6999 19.1484L86.9219 19.1717C87.1645 19.2155 87.2988 19.2827 87.2988 19.3936C87.2988 19.5485 87.1207 19.6595 86.8109 19.6595C86.5012 19.6595 86.256 19.5485 86.1011 19.4375L85.8791 19.7911C86.1217 19.9692 86.4547 20.057 86.7877 20.057C87.4072 20.057 87.7634 19.7679 87.7634 19.3704C87.7634 18.9936 87.4743 18.7948 87.0329 18.7277L86.8109 18.7045C86.6122 18.6812 86.4573 18.6374 86.4573 18.5057C86.4573 18.3509 86.6122 18.2631 86.8574 18.2631C87.1232 18.2631 87.3891 18.3741 87.5233 18.4412L87.7195 18.0643ZM100.081 17.8424C99.8149 17.8424 99.6368 17.9766 99.5258 18.1521V17.8862H99.0612V20.0131H99.5258V18.8155C99.5258 18.4618 99.6806 18.2605 99.9697 18.2605C100.057 18.2605 100.168 18.2837 100.259 18.3044L100.393 17.8656C100.303 17.8424 100.171 17.8424 100.081 17.8424ZM94.144 18.9523C94.144 19.595 94.588 20.0596 95.2746 20.0596C95.5843 20.0596 95.8063 19.9925 96.0283 19.817L95.8063 19.4401C95.6282 19.5743 95.4527 19.6389 95.2513 19.6389C94.8745 19.6389 94.6086 19.373 94.6086 18.9523C94.6086 18.5522 94.8745 18.2863 95.2513 18.2657C95.4501 18.2657 95.6282 18.3328 95.8063 18.4644L96.0283 18.0876C95.8063 17.9095 95.5843 17.8449 95.2746 17.8449C94.588 17.8424 94.144 18.3096 94.144 18.9523ZM98.4417 18.9523V17.8888H97.9771V18.1547C97.8222 17.9559 97.6002 17.8449 97.3111 17.8449C96.7123 17.8449 96.2477 18.3096 96.2477 18.9523C96.2477 19.595 96.7123 20.0596 97.3111 20.0596C97.6209 20.0596 97.8428 19.9486 97.9771 19.7498V20.0157H98.4417V18.9523ZM96.7355 18.9523C96.7355 18.5754 96.9781 18.2657 97.3782 18.2657C97.7551 18.2657 98.0209 18.5548 98.0209 18.9523C98.0209 19.3291 97.7551 19.6389 97.3782 19.6389C96.9807 19.6156 96.7355 19.3265 96.7355 18.9523ZM91.1757 17.8424C90.5562 17.8424 90.1122 18.2863 90.1122 18.9497C90.1122 19.6156 90.5562 20.057 91.1989 20.057C91.5086 20.057 91.8184 19.9692 92.0636 19.7679L91.8416 19.4349C91.6635 19.5692 91.4415 19.6569 91.2221 19.6569C90.933 19.6569 90.6465 19.5227 90.5794 19.1484H92.1514C92.1514 19.0813 92.1514 19.0374 92.1514 18.9703C92.172 18.2863 91.7719 17.8424 91.1757 17.8424ZM91.1757 18.2424C91.4648 18.2424 91.6635 18.4205 91.7074 18.7509H90.6001C90.644 18.4644 90.8427 18.2424 91.1757 18.2424ZM102.719 18.9523V17.0474H102.254V18.1547C102.099 17.9559 101.877 17.8449 101.588 17.8449C100.989 17.8449 100.525 18.3096 100.525 18.9523C100.525 19.595 100.989 20.0596 101.588 20.0596C101.898 20.0596 102.12 19.9486 102.254 19.7498V20.0157H102.719V18.9523ZM101.013 18.9523C101.013 18.5754 101.255 18.2657 101.655 18.2657C102.032 18.2657 102.298 18.5548 102.298 18.9523C102.298 19.3291 102.032 19.6389 101.655 19.6389C101.255 19.6156 101.013 19.3265 101.013 18.9523ZM85.4584 18.9523V17.8888H84.9938V18.1547C84.8389 17.9559 84.6169 17.8449 84.3278 17.8449C83.729 17.8449 83.2644 18.3096 83.2644 18.9523C83.2644 19.595 83.729 20.0596 84.3278 20.0596C84.6376 20.0596 84.8596 19.9486 84.9938 19.7498V20.0157H85.4584V18.9523ZM83.7316 18.9523C83.7316 18.5754 83.9742 18.2657 84.3743 18.2657C84.7511 18.2657 85.017 18.5548 85.017 18.9523C85.017 19.3291 84.7511 19.6389 84.3743 19.6389C83.9742 19.6156 83.7316 19.3265 83.7316 18.9523Z" fill="black"/>
<path d="M94.5442 1.73584H87.5647V14.2752H94.5442V1.73584Z" fill="#FF5A00"/>
<path d="M88.0295 8.0056C88.0295 5.45798 89.2272 3.19688 91.065 1.73594C89.7124 0.672496 88.0063 0.0297852 86.1452 0.0297852C81.7366 0.0297852 78.1694 3.59696 78.1694 8.0056C78.1694 12.4142 81.7366 15.9814 86.1452 15.9814C88.0063 15.9814 89.7124 15.3387 91.065 14.2753C89.2246 12.835 88.0295 10.5532 88.0295 8.0056Z" fill="#EB001B"/>
<path d="M103.96 8.0056C103.96 12.4142 100.393 15.9814 95.9847 15.9814C94.1236 15.9814 92.4175 15.3387 91.0649 14.2753C92.926 12.8117 94.1004 10.5532 94.1004 8.0056C94.1004 5.45798 92.9027 3.19688 91.0649 1.73594C92.4149 0.672496 94.121 0.0297852 95.9821 0.0297852C100.393 0.0297852 103.96 3.62019 103.96 8.0056Z" fill="#F79E1B"/>
</g>
<g clip-path="url(#clip1_50_2285)">
<path d="M112.912 17.9187H113.239L112.935 19.1884C112.89 19.3768 112.899 19.5186 112.961 19.6132C113.023 19.7079 113.139 19.7553 113.308 19.7553C113.476 19.7553 113.613 19.7079 113.721 19.6132C113.829 19.5186 113.905 19.3768 113.95 19.1884L114.254 17.9187H114.585L114.274 19.2198C114.206 19.5026 114.086 19.7142 113.913 19.8545C113.74 19.995 113.514 20.0652 113.234 20.0652C112.953 20.0652 112.761 19.9952 112.656 19.8552C112.551 19.7154 112.533 19.5035 112.601 19.2198L112.912 17.9187Z" fill="#696A6A"/>
<path d="M114.542 20.0099L115.062 17.8363L116.051 19.1145C116.077 19.1505 116.104 19.1891 116.13 19.2301C116.156 19.2711 116.183 19.3171 116.211 19.3686L116.558 17.9191H116.864L116.344 20.0911L115.335 18.7901C115.308 18.755 115.283 18.7179 115.259 18.6788C115.235 18.6397 115.214 18.5987 115.194 18.556L114.846 20.0099H114.542Z" fill="#696A6A"/>
<path d="M116.837 20.0098L117.338 17.9189H117.669L117.168 20.0098H116.837Z" fill="#696A6A"/>
<path d="M117.644 20.0098L118.145 17.9189H119.282L119.213 18.2073H118.407L118.282 18.7286H119.088L119.017 19.027H118.211L117.976 20.0098H117.644Z" fill="#696A6A"/>
<path d="M119.146 20.0098L119.647 17.9189H119.978L119.478 20.0098H119.146Z" fill="#696A6A"/>
<path d="M119.954 20.0098L120.455 17.9189H121.592L121.523 18.2073H120.717L120.592 18.7314H121.398L121.326 19.03H120.52L120.358 19.7055H121.164L121.092 20.0098H119.954Z" fill="#696A6A"/>
<path d="M121.876 19.7026H122.155C122.308 19.7026 122.425 19.6921 122.507 19.6712C122.589 19.6503 122.663 19.615 122.732 19.5655C122.825 19.498 122.903 19.4139 122.966 19.3134C123.028 19.2131 123.075 19.096 123.107 18.9627C123.139 18.8293 123.148 18.7127 123.133 18.6124C123.119 18.5118 123.081 18.4278 123.021 18.3601C122.975 18.3108 122.915 18.2753 122.839 18.2543C122.764 18.2335 122.641 18.223 122.47 18.223H122.35H122.231L121.876 19.7026ZM121.472 20.0098L121.972 17.9188H122.419C122.709 17.9188 122.91 17.9337 123.022 17.9637C123.133 17.9938 123.224 18.0441 123.296 18.1145C123.392 18.2068 123.453 18.3254 123.479 18.47C123.505 18.6148 123.496 18.78 123.452 18.9656C123.407 19.1513 123.338 19.3158 123.242 19.4591C123.148 19.6024 123.03 19.7207 122.89 19.814C122.784 19.8845 122.67 19.9347 122.549 19.9648C122.428 19.9946 122.248 20.0098 122.008 20.0098H121.918H121.472Z" fill="#696A6A"/>
<path d="M125.065 18.793H125.15C125.334 18.793 125.461 18.7723 125.532 18.7314C125.603 18.6906 125.651 18.6182 125.676 18.5144C125.703 18.403 125.689 18.3243 125.634 18.2788C125.58 18.2331 125.465 18.21 125.29 18.21H125.204L125.065 18.793ZM124.977 19.0712L124.753 20.0098H124.442L124.943 17.9189H125.444C125.593 17.9189 125.7 17.9272 125.766 17.9438C125.832 17.9604 125.886 17.9879 125.929 18.026C125.982 18.0746 126.016 18.14 126.033 18.2223C126.049 18.3047 126.045 18.3954 126.022 18.4943C125.998 18.5934 125.958 18.6848 125.902 18.7686C125.846 18.8524 125.78 18.9182 125.704 18.9656C125.643 19.0038 125.576 19.0309 125.502 19.047C125.428 19.0633 125.317 19.0712 125.168 19.0712H125.103H124.977Z" fill="#696A6A"/>
<path d="M126.431 19.1886H126.999L126.904 18.7115C126.9 18.6811 126.895 18.6462 126.892 18.6066C126.888 18.567 126.886 18.523 126.884 18.4745C126.862 18.5202 126.84 18.5628 126.818 18.6024C126.796 18.6418 126.775 18.6782 126.754 18.7115L126.431 19.1886ZM127.151 20.0098L127.048 19.4713H126.241L125.875 20.0098H125.527L127.034 17.8361L127.5 20.0098H127.151Z" fill="#696A6A"/>
<path d="M127.974 20.0098L128.203 19.0528L127.789 17.9189H128.137L128.394 18.6287C128.4 18.6469 128.407 18.6706 128.415 18.7001C128.423 18.7297 128.432 18.7614 128.439 18.7958C128.46 18.7625 128.481 18.7308 128.503 18.7014C128.524 18.6719 128.546 18.6449 128.567 18.6201L129.174 17.9189H129.505L128.532 19.0528L128.303 20.0098H127.974Z" fill="#696A6A"/>
<path d="M131.136 18.977C131.136 18.9608 131.14 18.9162 131.15 18.8428C131.157 18.7819 131.162 18.7313 131.166 18.6913C131.147 18.739 131.123 18.7867 131.097 18.8342C131.07 18.8818 131.039 18.9303 131.004 18.9799L130.204 20.094L129.943 18.9572C129.932 18.9104 129.924 18.8652 129.918 18.8215C129.912 18.7776 129.908 18.7343 129.906 18.6913C129.895 18.7352 129.881 18.7811 129.863 18.8292C129.846 18.8773 129.824 18.9276 129.8 18.9799L129.335 20.0097H129.03L130.033 17.8301L130.319 19.1499C130.323 19.1708 130.329 19.2056 130.336 19.2542C130.344 19.3027 130.352 19.3627 130.362 19.434C130.396 19.374 130.445 19.298 130.509 19.2056C130.526 19.1808 130.539 19.1618 130.548 19.1485L131.451 17.8301L131.422 20.0097H131.114L131.136 18.977Z" fill="#696A6A"/>
<path d="M131.686 20.0098L132.187 17.9189H133.324L133.255 18.2073H132.449L132.323 18.7314H133.129L133.058 19.03H132.252L132.09 19.7055H132.896L132.823 20.0098H131.686Z" fill="#696A6A"/>
<path d="M133.203 20.0099L133.724 17.8363L134.712 19.1145C134.739 19.1505 134.766 19.1891 134.792 19.2301C134.818 19.2711 134.845 19.3171 134.873 19.3686L135.22 17.9191H135.526L135.006 20.0911L133.997 18.7901C133.97 18.755 133.944 18.7179 133.921 18.6788C133.897 18.6397 133.876 18.5987 133.856 18.556L133.508 20.0099H133.203Z" fill="#696A6A"/>
<path d="M136.583 18.2073L136.152 20.0098H135.821L136.252 18.2073H135.71L135.78 17.9189H137.191L137.122 18.2073H136.583Z" fill="#696A6A"/>
<path d="M136.927 19.5913L137.222 19.4657C137.225 19.5589 137.253 19.6301 137.308 19.6791C137.363 19.7283 137.443 19.7527 137.547 19.7527C137.645 19.7527 137.73 19.7246 137.802 19.6684C137.873 19.6123 137.92 19.537 137.943 19.4428C137.972 19.3199 137.899 19.2104 137.724 19.1144C137.699 19.1001 137.68 19.0896 137.667 19.0828C137.469 18.9705 137.344 18.8688 137.291 18.7779C137.238 18.687 137.227 18.5758 137.259 18.4445C137.299 18.2741 137.389 18.136 137.527 18.0303C137.665 17.9246 137.825 17.8717 138.008 17.8717C138.159 17.8717 138.277 17.9015 138.364 17.961C138.451 18.0206 138.501 18.106 138.513 18.2174L138.221 18.3545C138.196 18.2888 138.163 18.2408 138.122 18.2102C138.08 18.1797 138.028 18.1645 137.965 18.1645C137.876 18.1645 137.799 18.1884 137.735 18.2358C137.672 18.2835 137.63 18.3473 137.611 18.4274C137.581 18.553 137.668 18.6701 137.872 18.7786C137.888 18.7871 137.9 18.794 137.909 18.7987C138.088 18.8937 138.204 18.9869 138.257 19.0779C138.31 19.1689 138.321 19.2824 138.288 19.4185C138.241 19.6166 138.142 19.774 137.993 19.8905C137.843 20.0071 137.665 20.0654 137.458 20.0654C137.285 20.0654 137.152 20.0246 137.061 19.9426C136.97 19.8608 136.925 19.7437 136.927 19.5913Z" fill="#696A6A"/>
<path d="M139.375 20.0098L139.876 17.9189H140.207L139.706 20.0098H139.375Z" fill="#696A6A"/>
<path d="M140.182 20.0099L140.702 17.8363L141.691 19.1145C141.718 19.1505 141.744 19.1891 141.771 19.2301C141.797 19.2711 141.824 19.3171 141.852 19.3686L142.199 17.9191H142.505L141.985 20.0911L140.975 18.7901C140.948 18.755 140.923 18.7179 140.9 18.6788C140.876 18.6397 140.854 18.5987 140.835 18.556L140.487 20.0099H140.182Z" fill="#696A6A"/>
<path d="M143.562 18.2073L143.131 20.0098H142.8L143.231 18.2073H142.689L142.759 17.9189H144.17L144.101 18.2073H143.562Z" fill="#696A6A"/>
<path d="M143.923 20.0098L144.423 17.9189H145.56L145.491 18.2073H144.685L144.56 18.7314H145.366L145.294 19.03H144.488L144.327 19.7055H145.133L145.06 20.0098H143.923Z" fill="#696A6A"/>
<path d="M146.059 18.81H146.119C146.294 18.81 146.416 18.7892 146.483 18.7473C146.551 18.7053 146.598 18.6312 146.623 18.5244C146.65 18.4093 146.639 18.328 146.588 18.281C146.538 18.2336 146.43 18.2101 146.263 18.2101H146.203L146.059 18.81ZM145.975 19.0742L145.751 20.0098H145.44L145.941 17.9189H146.403C146.539 17.9189 146.642 17.9279 146.712 17.9461C146.782 17.9641 146.839 17.994 146.882 18.0361C146.933 18.0864 146.966 18.1518 146.981 18.2318C146.996 18.3116 146.992 18.3992 146.97 18.4943C146.93 18.6619 146.859 18.7931 146.757 18.8879C146.656 18.9825 146.526 19.0396 146.367 19.0585L146.841 20.0098H146.466L146.012 19.0742H145.975Z" fill="#696A6A"/>
<path d="M147.037 20.0098L147.538 17.9189H148.675L148.606 18.2073H147.8L147.675 18.7286H148.481L148.41 19.027H147.604L147.368 20.0098H147.037Z" fill="#696A6A"/>
<path d="M149.059 19.1886H149.627L149.532 18.7115C149.528 18.6811 149.523 18.6462 149.52 18.6066C149.516 18.567 149.514 18.523 149.512 18.4745C149.49 18.5202 149.468 18.5628 149.446 18.6024C149.424 18.6418 149.403 18.6782 149.382 18.7115L149.059 19.1886ZM149.779 20.0098L149.676 19.4713H148.869L148.503 20.0098H148.155L149.662 17.8361L150.128 20.0098H149.779Z" fill="#696A6A"/>
<path d="M152.285 18.4271C152.211 18.3453 152.126 18.2839 152.032 18.2429C151.937 18.2021 151.832 18.1815 151.717 18.1815C151.494 18.1815 151.296 18.2548 151.121 18.4014C150.946 18.5481 150.831 18.738 150.775 18.9713C150.721 19.197 150.744 19.383 150.845 19.5296C150.946 19.6763 151.1 19.7497 151.307 19.7497C151.428 19.7497 151.548 19.7278 151.667 19.684C151.787 19.6401 151.907 19.574 152.029 19.4853L151.937 19.8696C151.832 19.9353 151.723 19.9844 151.611 20.0166C151.498 20.049 151.38 20.0652 151.258 20.0652C151.102 20.0652 150.964 20.0391 150.844 19.9866C150.725 19.9343 150.627 19.8573 150.551 19.7553C150.476 19.6554 150.427 19.5376 150.407 19.4018C150.386 19.2662 150.394 19.1217 150.43 18.9683C150.467 18.8151 150.528 18.6711 150.614 18.5364C150.699 18.4016 150.805 18.2833 150.931 18.1815C151.056 18.0786 151.191 18.0009 151.334 17.9479C151.478 17.8952 151.626 17.8686 151.778 17.8686C151.898 17.8686 152.008 17.8866 152.108 17.9224C152.208 17.9579 152.3 18.0119 152.385 18.0845L152.285 18.4271Z" fill="#696A6A"/>
<path d="M152.316 20.0098L152.817 17.9189H153.954L153.885 18.2073H153.079L152.954 18.7314H153.76L153.688 19.03H152.882L152.721 19.7055H153.527L153.454 20.0098H152.316Z" fill="#696A6A"/>
<path d="M146.274 16.0967H143.997L147.164 4.658H149.442L146.274 16.0967Z" fill="#66686C"/>
<path d="M145.092 5.01979C144.934 4.80213 144.691 4.69229 144.36 4.69229H131.837L131.216 6.93267H133.495V6.93137H142.609L141.946 9.32552H132.832L132.833 9.32056H130.555L128.665 16.1453H130.943L132.212 11.5646H142.457C142.777 11.5646 143.078 11.4555 143.361 11.2372C143.644 11.0187 143.83 10.7493 143.919 10.4276L145.187 5.84602C145.28 5.51357 145.248 5.23768 145.092 5.01979Z" fill="#66686C"/>
<path d="M127.337 15.3829C127.212 15.8358 126.799 16.1492 126.329 16.1492H114.579C114.259 16.1492 114.021 16.04 113.864 15.822C113.708 15.6038 113.674 15.3338 113.764 15.0122L116.631 4.69171H118.91L116.35 13.9095H125.468L128.028 4.69171H130.307L127.337 15.3829Z" fill="#66686C"/>
<path d="M153.375 4.67945L156.258 10.4136L150.197 16.1462L153.375 4.67945Z" fill="#27803B"/>
<path d="M151.353 4.67945L154.235 10.4136L148.171 16.1462L151.353 4.67945Z" fill="#E9661C"/>
</g>
<g clip-path="url(#clip2_50_2285)">
<path d="M223.957 7.43206C223.438 5.94901 222.024 4.88403 220.364 4.88403H220.329C219.25 4.88403 218.277 5.33326 217.585 6.05442C216.891 5.33326 215.918 4.88403 214.84 4.88403H214.806C213.857 4.88403 212.989 5.23144 212.323 5.80645V5.51415C212.301 5.22305 212.061 4.99424 211.765 4.99424H209.218C208.907 4.99424 208.655 5.24581 208.655 5.55848V19.3887C208.655 19.7014 208.907 19.953 209.218 19.953H211.765C212.049 19.953 212.283 19.7409 212.32 19.4666L212.319 9.53804C212.319 9.5033 212.32 9.47096 212.323 9.43861C212.364 8.99537 212.689 8.6312 213.201 8.58568H213.296H213.563H213.671C213.885 8.60485 214.066 8.68032 214.209 8.79412C214.431 8.97022 214.554 9.24095 214.554 9.53804L214.564 19.4175C214.564 19.7301 214.816 19.9829 215.127 19.9829H217.673C217.974 19.9829 218.218 19.7433 218.233 19.445L218.232 9.52487C218.23 9.19902 218.381 8.90433 218.646 8.72943C218.777 8.64558 218.934 8.58927 219.115 8.5725H219.209H219.476H219.584C220.135 8.62042 220.468 9.0385 220.467 9.52487L220.477 19.3911C220.477 19.7038 220.729 19.9554 221.04 19.9554H223.586C223.897 19.9554 224.149 19.7038 224.149 19.3911V8.77974C224.149 8.05619 224.068 7.74832 223.957 7.43206Z" fill="#54C1F0"/>
<path d="M206.715 5.03042H205.258V2.67047C205.258 2.66808 205.258 2.66568 205.258 2.66328C205.258 2.37937 205.028 2.14937 204.744 2.14937C204.711 2.14937 204.679 2.15416 204.647 2.16015C203.033 2.60339 203.356 4.83995 200.408 5.03042H200.342H200.122C200.078 5.03042 200.038 5.03641 199.998 5.04479H199.996L199.998 5.04599C199.747 5.1023 199.557 5.32511 199.557 5.59345V8.14028C199.557 8.45055 199.81 8.70331 200.122 8.70331H201.659L201.656 19.5028C201.656 19.8106 201.905 20.0598 202.213 20.0598H204.731C205.038 20.0598 205.287 19.8106 205.287 19.5028L205.288 8.70331H206.715C207.025 8.70331 207.278 8.45055 207.278 8.14028V5.59345C207.278 5.28319 207.025 5.03042 206.715 5.03042Z" fill="#54C1F0"/>
<path d="M197.552 5.03028H195.005C194.695 5.03028 194.443 5.28305 194.443 5.59332V10.8595C194.437 11.1853 194.174 11.4465 193.847 11.4465H192.781C192.45 11.4465 192.183 11.1805 192.183 10.8499L192.173 5.59332C192.173 5.28305 191.921 5.03028 191.61 5.03028H189.064C188.752 5.03028 188.5 5.28305 188.5 5.59332V11.365C188.5 13.5572 190.064 15.1206 192.257 15.1206C192.257 15.1206 193.903 15.1206 193.954 15.1301C194.251 15.1637 194.482 15.4129 194.482 15.7195C194.482 16.0226 194.255 16.2706 193.962 16.3077C193.948 16.3101 193.934 16.3137 193.919 16.3161L190.194 16.3293C189.883 16.3293 189.631 16.582 189.631 16.8923V19.4379C189.631 19.7494 189.883 20.001 190.194 20.001H194.358C196.553 20.001 198.115 18.4389 198.115 16.2454V5.59332C198.115 5.28305 197.864 5.03028 197.552 5.03028Z" fill="#233266"/>
<path d="M172.9 9.69668V10.885V11.2684C172.9 11.5978 172.633 11.8662 172.304 11.8662L170.688 11.8674V8.71796H172.304C172.633 8.71796 172.9 8.98391 172.9 9.31454V9.69668ZM173.124 5.0295H167.558C167.252 5.0295 167.005 5.27747 167.005 5.58175V8.07707C167.005 8.08186 167.007 8.08665 167.007 8.09144C167.007 8.10342 167.005 8.1154 167.005 8.12618V16.1296V19.4204C167.005 19.7271 167.235 19.9774 167.52 19.9846H167.568H170.115C170.425 19.9846 170.678 19.7331 170.678 19.4216L170.688 15.551H173.124C175.163 15.551 176.584 14.1363 176.584 12.089V8.49635C176.584 6.44906 175.163 5.0295 173.124 5.0295" fill="#233266"/>
<path d="M183.468 15.6761V16.0738C183.468 16.1061 183.463 16.1373 183.458 16.1672C183.452 16.196 183.444 16.2235 183.434 16.2499C183.355 16.4727 183.132 16.6344 182.867 16.6344H181.807C181.477 16.6344 181.207 16.3828 181.207 16.0738V15.5934C181.207 15.5874 181.206 15.5814 181.206 15.5754L181.207 14.2972V14.2948V14.1535V13.8971L181.208 13.8935C181.209 13.5856 181.477 13.3365 181.807 13.3365H182.867C183.199 13.3365 183.468 13.5868 183.468 13.8971V15.6761ZM183.063 5.04431H179.529C179.216 5.04431 178.963 5.28151 178.963 5.57261V6.5633C178.963 6.56929 178.964 6.57648 178.964 6.58247C178.964 6.58966 178.963 6.59685 178.963 6.60404V7.9613C178.963 8.26918 179.232 8.52074 179.562 8.52074H182.927C183.193 8.56267 183.404 8.75674 183.434 9.05982V9.38805C183.404 9.67676 183.196 9.8876 182.942 9.91156H181.275C179.059 9.91156 177.48 11.3838 177.48 13.4515V16.3373V16.4128C177.48 18.4685 178.837 19.9312 181.038 19.9312H185.656C186.485 19.9312 187.157 19.3034 187.157 18.5308V8.86695C187.157 6.52377 185.95 5.04431 183.063 5.04431" fill="#233266"/>
</g>
<g clip-path="url(#clip3_50_2285)">
<path d="M259.251 13.4474V18.7811H257.531V5.59033H262.004C263.094 5.59033 264.126 5.99179 264.929 6.73735C265.732 7.42557 266.133 8.45788 266.133 9.54755C266.133 10.6372 265.732 11.6122 264.929 12.3578C264.126 13.1033 263.151 13.5048 262.004 13.5048L259.251 13.4474ZM259.251 7.19616V11.7842H262.119C262.749 11.7842 263.38 11.5548 263.782 11.096C264.699 10.2358 264.699 8.80199 263.839 7.94172L263.782 7.88437C263.323 7.42557 262.749 7.13881 262.119 7.19616H259.251Z" fill="#5F6368"/>
<path d="M270.091 9.49023C271.352 9.49023 272.327 9.83434 273.073 10.5226C273.818 11.2108 274.162 12.1284 274.162 13.2754V18.7811H272.557V17.5194H272.499C271.811 18.5517 270.836 19.0679 269.689 19.0679C268.714 19.0679 267.854 18.7811 267.166 18.2076C266.535 17.6341 266.133 16.8312 266.133 15.9709C266.133 15.0533 266.477 14.3077 267.166 13.7342C267.854 13.1607 268.829 12.9313 269.976 12.9313C271.008 12.9313 271.811 13.1033 272.442 13.5048V13.1034C272.442 12.5298 272.213 11.9563 271.754 11.6122C271.295 11.2108 270.721 10.9814 270.091 10.9814C269.116 10.9814 268.37 11.3828 267.854 12.1857L266.363 11.2681C267.28 10.0637 268.485 9.49023 270.091 9.49023ZM267.911 16.0283C267.911 16.4871 268.141 16.8885 268.485 17.1179C268.886 17.4047 269.345 17.5767 269.804 17.5767C270.492 17.5767 271.18 17.29 271.696 16.7738C272.27 16.2577 272.557 15.6268 272.557 14.9386C272.04 14.5371 271.295 14.3077 270.32 14.3077C269.632 14.3077 269.058 14.4798 268.599 14.8239C268.141 15.1106 267.911 15.5121 267.911 16.0283Z" fill="#5F6368"/>
<path d="M283.453 9.7771L277.775 22.7958H276.055L278.177 18.2651L274.449 9.83445H276.284L278.98 16.3151H279.037L281.675 9.83445H283.453V9.7771Z" fill="#5F6368"/>
<path d="M252.426 12.3004C252.426 11.7843 252.369 11.2681 252.311 10.752H245.143V13.6769H249.215C249.042 14.5945 248.526 15.4547 247.723 15.9709V17.8635H250.189C251.623 16.5444 252.426 14.5945 252.426 12.3004Z" fill="#4285F4"/>
<path d="M245.143 19.6988C247.207 19.6988 248.928 19.0106 250.19 17.8636L247.723 15.971C247.035 16.4298 246.175 16.7166 245.143 16.7166C243.193 16.7166 241.472 15.3975 240.899 13.5623H238.375V15.5122C239.694 18.093 242.275 19.6988 245.143 19.6988Z" fill="#34A853"/>
<path d="M240.899 13.5621C240.554 12.6445 240.554 11.6122 240.899 10.6372V8.68726H238.375C237.285 10.8092 237.285 13.3327 238.375 15.512L240.899 13.5621Z" fill="#FBBC04"/>
<path d="M245.142 7.54027C246.232 7.54027 247.264 7.94173 248.067 8.68729L250.247 6.50795C248.87 5.24623 247.035 4.50067 245.2 4.55802C242.332 4.55802 239.694 6.16385 238.432 8.74464L240.956 10.6946C241.472 8.85934 243.193 7.54027 245.142 7.54027Z" fill="#EA4335"/>
</g>
<defs>
<clipPath id="clip0_50_2285">
<rect width="25.791" height="20.0299" fill="white" transform="translate(78.1694 0.0297852)"/>
</clipPath>
<clipPath id="clip1_50_2285">
<rect width="43.7015" height="15.4391" fill="white" transform="translate(112.557 4.65674)"/>
</clipPath>
<clipPath id="clip2_50_2285">
<rect width="63.9102" height="20.0597" fill="white" transform="translate(164.856)"/>
</clipPath>
<clipPath id="clip3_50_2285">
<rect width="45.8808" height="21.8507" fill="white" transform="translate(237.572 2.14917)"/>
</clipPath>
</defs>
</svg>
