<svg width="31" height="27" viewBox="0 0 31 27" fill="none" xmlns="http://www.w3.org/2000/svg">
<path fill-rule="evenodd" clip-rule="evenodd" d="M23.4695 4.59011C16.6225 4.59441 9.77477 4.6009 2.92812 4.59071C2.06248 4.58932 1.37311 4.55247 0.789202 5.02862C-0.740633 6.27564 0.32463 8.50493 0.898155 10.9816C1.22711 12.4021 1.54098 13.7654 1.85975 15.1729C2.76313 19.1592 4.42929 18.4711 8.77772 18.4711C10.5264 18.4711 12.0869 18.5701 13.8342 18.5701C15.5528 18.5701 17.271 18.5701 18.9896 18.5701C19.7262 18.5701 20.8863 18.385 21.1938 18.9475C21.6781 19.8338 20.9112 20.2557 20.085 20.2593C15.2065 20.2808 9.34226 20.1359 4.60685 20.2503C3.76608 20.2703 3.25198 20.9968 3.80683 21.6563C4.22546 22.1543 5.37052 21.9448 6.09384 21.9787C3.70856 23.2464 4.80638 25.9869 6.795 26.0098C8.59517 26.0308 10.0983 23.596 7.57574 21.9658L18.5863 21.9663C16.0297 23.5122 17.5238 26.0545 19.386 26.0096C21.245 25.9643 22.5338 23.2886 19.9867 21.9781C20.8506 21.8613 22.1398 22.0382 22.8022 20.3975C23.3873 18.948 22.5342 17.7781 21.784 17.2994C22.4951 15.6038 22.4484 15.5315 22.9146 13.6678C23.3783 11.8142 25.5646 2.75689 25.9781 2.25636C26.7959 1.2656 28.8726 1.84422 30.1955 1.7123C30.891 1.64299 31.1871 0.884015 30.7871 0.331761C30.4452 -0.140502 29.3057 0.0299677 28.6068 0.0299677C26.6937 0.0299677 25.8318 -0.121226 24.7809 1.06467C24.0651 1.87228 23.7721 3.40122 23.4695 4.59011Z" fill="#00AEEF"/>
<path d="M28.2092 5.89402C27.9587 5.89402 27.7267 5.84895 27.513 5.75879C27.2993 5.66864 27.1123 5.54342 26.952 5.38315C26.7917 5.21953 26.6665 5.03087 26.5764 4.81717C26.4896 4.60347 26.4461 4.37308 26.4461 4.12598C26.4461 3.87889 26.4912 3.6485 26.5814 3.4348C26.6715 3.2211 26.7967 3.03411 26.957 2.87383C27.1173 2.71022 27.3043 2.58333 27.518 2.49318C27.735 2.40302 27.9688 2.35795 28.2192 2.35795C28.4696 2.35795 28.7017 2.40302 28.9154 2.49318C29.1324 2.57999 29.3194 2.70354 29.4764 2.86382C29.6366 3.02409 29.7602 3.21108 29.847 3.42478C29.9371 3.63514 29.9822 3.86554 29.9822 4.11597C29.9822 4.3664 29.9371 4.60013 29.847 4.81717C29.7568 5.03087 29.63 5.21953 29.4663 5.38315C29.3061 5.54342 29.1191 5.66864 28.9054 5.75879C28.6917 5.84895 28.4596 5.89402 28.2092 5.89402ZM28.68 5.09765L28.1992 4.35638H28.7201L29.2009 5.09765H28.68ZM28.2092 5.56846C28.4129 5.56846 28.6015 5.53173 28.7751 5.45827C28.9488 5.38148 29.1007 5.27796 29.2309 5.14774C29.3612 5.01752 29.4613 4.86392 29.5314 4.68695C29.6049 4.50998 29.6416 4.31965 29.6416 4.11597C29.6416 3.91228 29.6049 3.72363 29.5314 3.54999C29.4613 3.37302 29.3628 3.2211 29.2359 3.09421C29.1124 2.96399 28.9638 2.86382 28.7902 2.7937C28.6165 2.72024 28.4262 2.68351 28.2192 2.68351C28.0155 2.68351 27.8252 2.72024 27.6482 2.7937C27.4746 2.86715 27.3227 2.97067 27.1924 3.10423C27.0655 3.23445 26.967 3.38638 26.8969 3.56001C26.8268 3.73364 26.7917 3.9223 26.7917 4.12598C26.7917 4.32967 26.8268 4.52 26.8969 4.69697C26.967 4.8706 27.0655 5.02253 27.1924 5.15275C27.3193 5.28297 27.4696 5.38482 27.6432 5.45827C27.8168 5.53173 28.0055 5.56846 28.2092 5.56846ZM27.4479 5.09765V3.15431H28.2943C28.5581 3.15431 28.7651 3.21609 28.9154 3.33963C29.0656 3.46318 29.1408 3.6318 29.1408 3.8455C29.1408 4.06922 29.0656 4.24118 28.9154 4.36139C28.7651 4.47826 28.5581 4.53669 28.2943 4.53669H27.9688V5.09765H27.4479ZM27.9638 4.14602H28.2593C28.3761 4.14602 28.4663 4.11931 28.5297 4.06588C28.5965 4.01246 28.6299 3.939 28.6299 3.8455C28.6299 3.74867 28.5965 3.67354 28.5297 3.62012C28.4663 3.56669 28.3761 3.53998 28.2593 3.53998H27.9638V4.14602Z" fill="#00AEEF"/>
<path fill-rule="evenodd" clip-rule="evenodd" d="M14.9247 16.7857C15.9483 16.7857 18.0476 16.8278 18.9532 16.7579C18.5614 16.4473 8.97569 6.83749 8.74301 6.51282L8.57933 6.27614L4.14941 6.28074C4.5293 6.59382 5.04561 7.17952 5.419 7.55292L14.0941 16.2282C14.3362 16.4737 14.4952 16.7857 14.9247 16.7857Z" fill="white"/>
<path fill-rule="evenodd" clip-rule="evenodd" d="M13.351 16.7797C12.7727 15.8852 3.31098 6.99126 3.07599 6.27643C1.62345 6.27563 1.49013 6.13941 1.83207 7.56449C2.01752 8.33675 2.16612 9.22735 2.38582 9.98932C2.51495 10.4363 2.79407 10.5281 3.0661 10.7981L8.22106 15.9545C9.12374 16.8552 8.68103 16.7873 10.364 16.7856C11.357 16.7844 12.3594 16.8003 13.351 16.7797Z" fill="white"/>
<path fill-rule="evenodd" clip-rule="evenodd" d="M20.0732 16.5628C20.5584 16.2078 20.6001 15.9949 20.7934 15.2145C21.3652 12.9057 21.6262 13.8 19.4233 11.593L14.9616 7.13166C14.7346 6.90487 14.2751 6.27612 13.9332 6.27612L9.74951 6.28101C10.1786 6.91026 11.6716 8.25145 12.3102 8.89039C13.5065 10.0876 19.6721 16.3692 20.0732 16.5628Z" fill="white"/>
<path fill-rule="evenodd" clip-rule="evenodd" d="M21.4575 12.3871C21.6494 12.0496 22.0616 10.1411 22.2282 9.51096C22.4479 8.68148 22.277 8.84566 20.8355 7.40451C20.5666 7.13557 19.8713 6.27613 19.4852 6.27613C18.4342 6.27613 16.2819 6.23309 15.3513 6.3039L21.4575 12.3871Z" fill="white"/>
<path fill-rule="evenodd" clip-rule="evenodd" d="M5.30733 16.7851L7.38942 16.7857L7.7733 16.7712L2.85645 11.8323C2.93174 12.6806 3.29834 13.9545 3.49907 14.8213C3.78349 16.0511 3.87127 16.7848 5.30733 16.7851Z" fill="white"/>
<path fill-rule="evenodd" clip-rule="evenodd" d="M22.5469 7.94296C22.8232 7.60662 22.9305 6.77803 23.0301 6.30078L20.9297 6.27332C21.1861 6.72541 22.1294 7.60861 22.5469 7.94296Z" fill="white"/>
</svg>
